<svg preserveAspectRatio="none" width="1440" height="1899" viewBox="0 0 1440 1899" fill="none" xmlns="http://www.w3.org/2000/svg">
<rect width="1440" height="1899" fill="white"/>
<mask id="mask0" mask-type="alpha" maskUnits="userSpaceOnUse" x="0" y="590" width="1440" height="1309">
<rect y="590" width="1440" height="1309" fill="#C4C4C4"/>
</mask>
<g mask="url(#mask0)">
<path d="M722 773.203C248 827.526 -36 645 -36 645L-60 1801C-60 1801 354 1609.78 754 1705.39C1154 1801 1504 1611.95 1504 1611.95L1494 927.481C1494 927.481 1196 718.88 722 773.203Z" fill="url(#paint0_linear)"/>
<path d="M685 1656.42C1177.24 1781.53 1550 1571 1550 1571L1672.5 1764.5C1672.5 1764.5 1542.55 1935.42 918 1781C293.447 1626.58 -24.4999 1812.58 -24.4999 1812.58L-24.5 1679C-24.5 1679 192.757 1531.31 685 1656.42Z" fill="#A3EDFE" fill-opacity="0.5"/>
<path d="M781.5 732C277 786 -24.5 598 -24.5 598V628.5C-24.5 628.5 52.5 866.5 736.5 866.5C1420.5 866.5 1524 1012.5 1524 1012.5V819.5C1524 819.5 1286 678 781.5 732Z" fill="#A3EDFE" fill-opacity="0.5"/>
</g>
<defs>
<linearGradient id="paint0_linear" x1="722" y1="783.805" x2="722" y2="1663.25" gradientUnits="userSpaceOnUse">
<stop stop-color="#3FC1DE" stop-opacity="0.5"/>
<stop offset="1" stop-color="#4667A9"/>
</linearGradient>
</defs>
</svg>
