<svg width="1440" height="6143" viewBox="0 0 1440 6143" fill="none" xmlns="http://www.w3.org/2000/svg">
<g clip-path="url(#clip0)">
<rect width="1440" height="1024" transform="translate(0 5119)" fill="white"/>
<path d="M683.239 5310.6C329.629 5380.19 -88 5241 -88 5241V6156L1525 6144.54L1501.49 5372.42C1501.49 5372.42 1036.85 5241 683.239 5310.6Z" fill="url(#paint0_linear)"/>
<path d="M635.95 5298.88C15.5471 5422.69 -57 5235 -57 5235V5298.87C-57 5298.87 148.133 5403.43 666.97 5361C1185.81 5318.57 1483 5501 1483 5501V5298.88C1483 5298.88 1256.35 5175.06 635.95 5298.88Z" fill="#A3EDFE" fill-opacity="0.5"/>
</g>
<rect width="1440" height="1024" transform="translate(0 4095)" fill="white"/>
<rect width="1440" height="1024" transform="translate(0 3072)" fill="white"/>
<g clip-path="url(#clip1)">
<rect width="1440" height="1024" transform="translate(0 2048)" fill="white"/>
<path d="M711 1845.2C237 1899.53 -47 1717 -47 1717L-71 2873C-71 2873 343 2681.78 743 2777.39C1143 2873 1493 2683.95 1493 2683.95L1483 1999.48C1483 1999.48 1185 1790.88 711 1845.2Z" fill="url(#paint1_linear)"/>
<path d="M674 2728.42C1166.24 2853.53 1539 2643 1539 2643L1661.5 2836.5C1661.5 2836.5 1531.55 3007.42 907 2853C282.447 2698.58 -35.4999 2884.58 -35.4999 2884.58L1.72336 2728.42C1.72336 2728.42 181.757 2603.31 674 2728.42Z" fill="#A3EDFE" fill-opacity="0.5"/>
</g>
<g clip-path="url(#clip2)">
<rect width="1440" height="1024" transform="translate(0 1024)" fill="white"/>
<path d="M711 1844.2C237 1898.53 -47 1716 -47 1716L-71 2872C-71 2872 343 2680.78 743 2776.39C1143 2872 1493 2682.95 1493 2682.95L1483 1998.48C1483 1998.48 1185 1789.88 711 1844.2Z" fill="url(#paint2_linear)"/>
<path d="M770.5 1804C266 1858 -35.5 1670 -35.5 1670V1700.5C-35.5 1700.5 41.5 1938.5 725.5 1938.5C1409.5 1938.5 1513 2084.5 1513 2084.5V1891.5C1513 1891.5 1275 1750 770.5 1804Z" fill="#A3EDFE" fill-opacity="0.5"/>
</g>
<g clip-path="url(#clip3)">
<rect width="1440" height="1024" fill="white"/>
<path fill-rule="evenodd" clip-rule="evenodd" d="M1440 0H0V661.497C103.672 611.837 481.223 565.632 775.897 601.947C1237.04 658.777 1360.12 569.555 1418.59 527.165C1426.74 521.263 1433.63 516.269 1440 512.703V0Z" fill="url(#paint3_linear)"/>
<path fill-rule="evenodd" clip-rule="evenodd" d="M1466 -18H-51V742.318C119.913 627.324 450.078 573.167 745.135 608.164C1222.49 664.786 1369.23 562.325 1435.32 516.173C1446.43 508.42 1455.25 502.256 1462.99 498.702C1464.04 498.22 1465.04 497.989 1466 498V-18ZM1466 897.605C1465.31 905.504 1464.62 913.31 1463.93 921H1466V897.605ZM1440 -14.977H-51V654.51C-47.9273 645.853 -44.3182 638.277 -40.1086 632C18.9053 544 412.681 549.485 721.324 584.409C1206.47 639.306 1349.64 555.149 1413.73 517.475C1422.93 512.069 1430.49 507.62 1437.21 504.677C1438.17 504.254 1439.1 504.021 1440 503.972V-14.977Z" fill="#A3EDFE" fill-opacity="0.5"/>
</g>
<defs>
<linearGradient id="paint0_linear" x1="718.5" y1="5241" x2="718.5" y2="6156" gradientUnits="userSpaceOnUse">
<stop stop-color="#3FC1DE" stop-opacity="0.5"/>
<stop offset="1" stop-color="#4667A9"/>
</linearGradient>
<linearGradient id="paint1_linear" x1="711" y1="1855.8" x2="711" y2="2735.25" gradientUnits="userSpaceOnUse">
<stop stop-color="#3FC1DE" stop-opacity="0.5"/>
<stop offset="1" stop-color="#4667A9"/>
</linearGradient>
<linearGradient id="paint2_linear" x1="711" y1="1854.8" x2="711" y2="2734.25" gradientUnits="userSpaceOnUse">
<stop stop-color="#3FC1DE" stop-opacity="0.5"/>
<stop offset="1" stop-color="#4667A9"/>
</linearGradient>
<linearGradient id="paint3_linear" x1="718" y1="0" x2="718" y2="473.335" gradientUnits="userSpaceOnUse">
<stop stop-color="#3FC1DE" stop-opacity="0.5"/>
<stop offset="1" stop-color="#32569F" stop-opacity="0.9"/>
</linearGradient>
<clipPath id="clip0">
<rect width="1440" height="1024" fill="white" transform="translate(0 5119)"/>
</clipPath>
<clipPath id="clip1">
<rect width="1440" height="1024" fill="white" transform="translate(0 2048)"/>
</clipPath>
<clipPath id="clip2">
<rect width="1440" height="1024" fill="white" transform="translate(0 1024)"/>
</clipPath>
<clipPath id="clip3">
<rect width="1440" height="1024" fill="white"/>
</clipPath>
</defs>
</svg>
