<svg width="80" height="77" viewBox="0 0 80 77" fill="none" xmlns="http://www.w3.org/2000/svg">
<path d="M33.5068 39.1225H35.7281V52.0267C35.7281 52.3102 35.9767 52.5489 36.2718 52.5489H42.0815C42.3767 52.5489 42.6252 52.3102 42.6252 52.0267V39.1225H45.9961C46.2757 39.1225 46.5087 38.9136 46.5398 38.66L47.0524 33.916C47.0835 33.6326 46.866 33.3789 46.5708 33.3491C46.5553 33.3491 46.5398 33.3491 46.5087 33.3491H42.6252V31.0815C42.6252 30.9324 42.6408 30.7832 42.7029 30.6489C42.765 30.5146 42.8738 30.4102 43.0291 30.3655C43.1223 30.3356 43.2155 30.3207 43.3087 30.3207H46.431C46.7262 30.3207 46.9747 30.082 46.9747 29.7986V25.2038C46.9747 24.9203 46.7262 24.6816 46.431 24.6816L42.1281 24.6667C41.0408 24.6369 39.9534 24.8606 38.9592 25.2933C38.3534 25.5618 37.8097 25.9497 37.3592 26.4121C36.7534 27.0387 36.3184 27.7995 36.0544 28.62C35.8214 29.3361 35.7126 30.0671 35.7126 30.813V33.364H33.4913C33.1961 33.364 32.9476 33.6027 32.9476 33.8862V38.6302C32.9631 38.8838 33.1961 39.1225 33.5068 39.1225Z" fill="white"/>
<path d="M40 69.66C57.8952 69.6749 72.4039 55.7711 72.435 38.5853C72.466 21.3995 57.9573 7.46592 40.0777 7.43608C22.1981 7.40625 7.65826 21.3399 7.64272 38.5107C7.62719 46.7754 11.0447 54.697 17.134 60.5449C23.1922 66.3929 31.4253 69.66 40 69.66ZM40 10.6286C56.0932 10.6137 69.1573 23.145 69.1728 38.6002C69.1884 54.0555 56.1398 66.6017 40.0466 66.6167C23.9534 66.6167 10.8893 54.1003 10.8738 38.645C10.8738 31.2157 13.934 24.0848 19.4175 18.8187C24.8699 13.5675 32.2796 10.6137 40 10.6286Z" fill="white"/>
</svg>
