<svg width="37" height="37" viewBox="0 0 37 37" fill="none" xmlns="http://www.w3.org/2000/svg">
<path d="M33.5312 4.625H3.46875C1.55299 4.625 0 6.17799 0 8.09375V28.9062C0 30.822 1.55299 32.375 3.46875 32.375H33.5312C35.447 32.375 37 30.822 37 28.9062V8.09375C37 6.17799 35.447 4.625 33.5312 4.625ZM33.5312 8.09375V11.0425C31.9109 12.362 29.3277 14.4138 23.8052 18.7381C22.5882 19.6954 20.1774 21.9953 18.5 21.9685C16.8229 21.9956 14.4113 19.6951 13.1948 18.7381C7.67316 14.4145 5.08931 12.3623 3.46875 11.0425V8.09375H33.5312ZM3.46875 28.9062V15.4936C5.12464 16.8125 7.47292 18.6633 11.0522 21.4661C12.6317 22.7094 15.3978 25.4541 18.5 25.4374C21.587 25.4541 24.318 22.7492 25.9472 21.4666C29.5264 18.664 31.8753 16.8127 33.5312 15.4937V28.9062H3.46875Z" fill="#4667A9"/>
</svg>
