<svg width="80" height="77" viewBox="0 0 80 77" fill="none" xmlns="http://www.w3.org/2000/svg">
<path d="M33.9107 33.1548H28.4583C28.1631 33.1548 27.9146 33.3935 27.9146 33.6769V49.4306C27.9146 49.714 28.1631 49.9527 28.4583 49.9527H33.9107C34.2058 49.9527 34.4544 49.714 34.4544 49.4306V33.6769C34.4544 33.3935 34.2214 33.1548 33.9107 33.1548Z" fill="white"/>
<path d="M31.1612 32.051H31.1923C32.2641 32.051 33.1806 31.7079 33.8175 31.1112C34.4699 30.4995 34.8272 29.679 34.8117 28.7989V28.784C34.8117 28.3513 34.7185 27.9187 34.5476 27.5159C34.2991 26.9192 33.8486 26.4269 33.2893 26.0838C32.668 25.7257 31.9534 25.5318 31.2233 25.5467C30.167 25.5467 29.2505 25.8898 28.6136 26.4716C27.9612 27.0833 27.5884 27.9187 27.6039 28.7989C27.5884 29.6641 27.9457 30.4995 28.5981 31.0963C29.2816 31.7378 30.1981 32.066 31.1612 32.051Z" fill="white"/>
<path d="M36.3961 48.3717C36.3961 48.6999 36.3961 48.9685 36.3961 49.1624V49.4458C36.3961 49.7293 36.6291 49.968 36.9398 49.968H42.3922C42.6874 49.968 42.9359 49.7293 42.9359 49.4458V40.6441C42.9359 40.4352 42.9515 40.2264 42.967 40.0175C42.9825 39.8683 43.0136 39.7192 43.0757 39.57C43.2466 39.1373 43.5262 38.7644 43.899 38.466C44.0855 38.3168 44.3029 38.1975 44.5359 38.108C44.8 38.0185 45.0796 37.9737 45.3748 37.9737C45.7321 37.9588 46.0738 38.0334 46.4 38.1826C46.602 38.2721 46.7728 38.4063 46.9126 38.5705C47.1612 38.8539 47.3321 39.197 47.4253 39.5551C47.5495 40.0324 47.6117 40.5247 47.5961 41.032V49.4608C47.5961 49.7442 47.8447 49.9829 48.1398 49.9829H53.5923C53.8874 49.9829 54.1359 49.7442 54.1359 49.4608V40.4203C54.1515 39.3014 53.9806 38.1826 53.6233 37.1085C53.1262 35.6763 52.2719 34.5873 51.1689 33.8712C50.066 33.1551 48.7301 32.812 47.301 32.812C46.602 32.812 45.9185 32.9015 45.2505 33.0955C44.4583 33.3341 43.7282 33.722 43.1223 34.2591C43.0602 34.3188 42.9825 34.3784 42.9204 34.4381V33.7071C42.9204 33.4237 42.6719 33.185 42.3767 33.185H36.9087C36.6136 33.185 36.3651 33.4237 36.3651 33.7071C36.3651 33.722 36.3651 33.722 36.3651 33.7369C36.3651 33.8414 36.3806 34.0502 36.3806 34.3337C36.3961 35.184 36.3961 36.7057 36.3961 38.4511C36.3961 40.7784 36.3806 43.5382 36.3806 45.7014C36.3961 46.7606 36.3961 47.7004 36.3961 48.3717Z" fill="white"/>
<path d="M40 69.66C57.8952 69.6749 72.4039 55.7711 72.435 38.5853C72.466 21.3995 57.9573 7.46592 40.0777 7.43608C22.1981 7.40625 7.65827 21.3399 7.64274 38.5107C7.6272 46.7754 11.0447 54.697 17.134 60.5449C23.1923 66.3929 31.4253 69.66 40 69.66ZM40 10.6286C56.0932 10.6137 69.1573 23.145 69.1728 38.6002C69.1884 54.0555 56.1398 66.6017 40.0466 66.6167C23.9534 66.6167 10.8893 54.1003 10.8738 38.645C10.8738 31.2157 13.934 24.0848 19.4175 18.8187C24.8699 13.5675 32.2796 10.6137 40 10.6286Z" fill="white"/>
</svg>
