<svg width="75" height="75" viewBox="0 0 75 75" fill="none" xmlns="http://www.w3.org/2000/svg">
<path d="M75 50.8301C75 48.091 75 44.7801 75 42.041C75 38.4063 72.0429 35.4492 68.4082 35.4492C61.6567 35.4492 56.9353 28.5986 57.3371 21.859C57.3936 20.9113 57.4219 19.9588 57.4219 19.0021V15.6738C57.4219 12.0391 54.4648 9.08203 50.8301 9.08203C47.1954 9.08203 44.2383 12.0391 44.2383 15.6738C44.2383 20.7548 42.2597 25.5313 38.667 29.124L32.6084 35.1826C32.4377 35.3533 32.2062 35.4492 31.9648 35.4492C31.4622 35.4492 31.0547 35.0417 31.0547 34.5391V33.252C31.0547 32.0385 30.0709 31.0547 28.8574 31.0547H24.4629C23.2494 31.0547 22.2656 30.0709 22.2656 28.8574C22.2656 27.6439 21.2818 26.6602 20.0684 26.6602H2.19727C0.983789 26.6602 0 27.6439 0 28.8574V72.8027C0 74.0162 0.983789 75 2.19727 75H20.0684C21.2818 75 22.2656 74.0162 22.2656 72.8027C22.2656 71.5892 23.2494 70.6055 24.4629 70.6055H28.8574C29.1363 70.6055 29.4029 70.5534 29.6481 70.4585C30.458 70.145 31.6113 69.8749 32.2254 70.489C35.1343 73.3979 39.0019 75 43.1159 75C43.5504 75 63.5687 75 64.0137 75C67.6484 75 70.6055 72.0429 70.6055 68.4082C70.6055 67.0815 71.3005 65.6866 72.3611 64.8896C73.9624 63.6863 75 61.7719 75 59.6191C75 56.88 75 53.5692 75 50.8301ZM17.8711 63.8791C17.8711 67.6006 14.8543 70.6055 11.1328 70.6055C7.41136 70.6055 4.39453 67.5886 4.39453 63.8672V37.793C4.39453 34.0715 7.41136 31.0547 11.1328 31.0547C14.8543 31.0547 17.8711 34.064 17.8711 37.7855C17.8711 45.0688 17.8711 56.6019 17.8711 63.8791ZM26.6602 37.6465V64.0137C26.6602 65.2272 25.6764 66.2109 24.4629 66.2109C23.2494 66.2109 22.2656 65.2272 22.2656 64.0137V37.6465C22.2656 36.433 23.2494 35.4492 24.4629 35.4492C25.6764 35.4492 26.6602 36.433 26.6602 37.6465ZM53.0273 50.8301C53.0273 53.5692 53.0273 56.88 53.0273 59.6191C53.0273 62.3582 53.0273 65.6691 53.0273 68.4082C53.0273 69.5011 52.2578 70.6055 51.1649 70.6055H43.1159C40.1758 70.6055 37.4117 69.4605 35.3328 67.3816L33.9836 66.0325C32.1083 64.1571 31.0547 61.6136 31.0547 58.9614V42.041C31.0547 40.8275 32.0384 39.8438 33.252 39.8438C33.8348 39.8438 34.3935 39.6122 34.8056 39.2001L41.7744 32.2314C46.1971 27.8087 48.6328 21.9286 48.6328 15.6738C48.6328 14.4623 49.6185 13.4766 50.8301 13.4766C52.0416 13.4766 53.0273 14.4623 53.0273 15.6738V19.0021C53.0273 25.1625 51.7334 31.1291 49.1818 36.7364C48.5202 38.1901 49.5855 39.8438 51.1816 39.8438C52.2664 39.8438 53.0273 40.9563 53.0273 42.041C53.0273 44.7801 53.0273 48.091 53.0273 50.8301ZM64.0137 70.6055H59.6191C58.4076 70.6055 57.4219 69.6198 57.4219 68.4082C57.4219 67.1966 58.4076 66.2109 59.6191 66.2109H64.0137C65.2252 66.2109 66.2109 67.1966 66.2109 68.4082C66.2109 69.6198 65.2252 70.6055 64.0137 70.6055ZM68.4082 61.8164C67.4767 61.8164 60.5506 61.8164 59.6191 61.8164C58.4076 61.8164 57.4219 60.8307 57.4219 59.6191C57.4219 58.4076 58.4076 57.4219 59.6191 57.4219H68.4082C69.6198 57.4219 70.6055 58.4076 70.6055 59.6191C70.6055 60.8307 69.6198 61.8164 68.4082 61.8164ZM68.4082 53.0273H59.6191C58.4076 53.0273 57.4219 52.0416 57.4219 50.8301C57.4219 49.6185 58.4076 48.6328 59.6191 48.6328H68.4082C69.6198 48.6328 70.6055 49.6185 70.6055 50.8301C70.6055 52.0416 69.6198 53.0273 68.4082 53.0273ZM68.4082 44.2383H59.6191C58.4076 44.2383 57.4219 43.2526 57.4219 42.041C57.4219 40.8294 58.4076 39.8438 59.6191 39.8438H68.4082C69.6198 39.8438 70.6055 40.8294 70.6055 42.041C70.6055 43.2526 69.6198 44.2383 68.4082 44.2383Z" fill="#486AAA"/>
<path d="M11.2793 66.2109C12.4928 66.2109 13.4766 65.2272 13.4766 64.0137C13.4766 62.8002 12.4928 61.8164 11.2793 61.8164C10.0658 61.8164 9.08203 62.8002 9.08203 64.0137C9.08203 65.2272 10.0658 66.2109 11.2793 66.2109Z" fill="#486AAA"/>
<path d="M59.6191 4.39453C60.8327 4.39453 61.8164 3.41078 61.8164 2.19727C61.8164 0.983749 60.8327 0 59.6191 0C58.4056 0 57.4219 0.983749 57.4219 2.19727C57.4219 3.41078 58.4056 4.39453 59.6191 4.39453Z" fill="#486AAA"/>
<path d="M38.6448 9.10972L36.4577 8.01617C34.5045 7.03951 32.9246 5.45029 31.9595 3.49128L30.844 1.2271C30.0403 -0.404443 27.7063 -0.405322 26.9018 1.2271L25.7865 3.49125C24.8214 5.45028 23.2416 7.03953 21.2883 8.01624L19.1013 9.10986C17.4831 9.91904 17.4867 12.2332 19.1013 13.0403L21.3243 14.1519C23.2595 15.1196 24.8286 16.6887 25.7962 18.6239L26.9077 20.8468C27.7169 22.465 30.031 22.4613 30.8383 20.8468L31.95 18.6237C32.9176 16.6886 34.4866 15.1196 36.4216 14.152L38.6448 13.0403C40.263 12.2313 40.2592 9.91714 38.6448 9.10972ZM30.82 12.0397C30.3948 12.2522 30.0501 12.5971 29.8374 13.0223C29.4399 13.8171 28.3057 13.8171 27.9083 13.0223C27.6956 12.5971 27.351 12.2524 26.9257 12.0397C26.131 11.6423 26.1311 10.508 26.9259 10.1106C27.3551 9.89605 27.7022 9.54683 27.9142 9.11631C28.306 8.32103 29.4399 8.32103 29.8317 9.11631C30.0436 9.54668 30.3908 9.8959 30.82 10.1106C31.6148 10.508 31.6148 11.6423 30.82 12.0397Z" fill="#486AAA"/>
<path d="M72.8027 17.8711C71.5892 17.8711 70.6055 16.8873 70.6055 15.6738C70.6055 14.4604 69.6217 13.4766 68.4082 13.4766C67.1947 13.4766 66.2109 14.4604 66.2109 15.6738C66.2109 16.8873 65.2272 17.8711 64.0137 17.8711C62.8002 17.8711 61.8164 18.8549 61.8164 20.0684C61.8164 21.2818 62.8002 22.2656 64.0137 22.2656C65.2272 22.2656 66.2109 23.2494 66.2109 24.4629C66.2109 25.6764 67.1947 26.6602 68.4082 26.6602C69.6217 26.6602 70.6055 25.6764 70.6055 24.4629C70.6055 23.2494 71.5892 22.2656 72.8027 22.2656C74.0162 22.2656 75 21.2818 75 20.0684C75 18.8549 74.0162 17.8711 72.8027 17.8711Z" fill="#486AAA"/>
</svg>
