<svg width="76" height="75" viewBox="0 0 76 75" fill="none" xmlns="http://www.w3.org/2000/svg">
<path d="M69.4577 29.1097C70.8214 27.7804 71.3029 25.8296 70.7145 24.0184C70.126 22.2073 68.5898 20.9121 66.7052 20.6384L50.2266 18.2439C49.9031 18.197 49.6235 17.9938 49.4788 17.7005L42.1093 2.76856C41.2666 1.06082 39.5601 0 37.6557 0C35.7513 0 34.0447 1.06082 33.202 2.76856L25.8326 17.7007C25.6877 17.9938 25.4083 18.197 25.0847 18.2441L8.60629 20.6384C6.72176 20.9121 5.18568 22.2073 4.59702 24.0184C4.00836 25.8296 4.48994 27.7804 5.85377 29.1097L17.7777 40.7327C18.0118 40.961 18.1187 41.2898 18.0634 41.612L15.2485 58.0239C14.9267 59.9009 15.6836 61.7621 17.2242 62.8815C18.7649 64.0011 20.7694 64.1457 22.4548 63.2598L37.1935 55.5111C37.483 55.3589 37.8285 55.3589 38.1181 55.5111L52.857 63.2598C53.5901 63.6452 54.3834 63.8356 55.1728 63.8355C56.198 63.8355 57.2168 63.5142 58.0871 62.8813C59.6278 61.7618 60.3848 59.9005 60.0629 58.0238L57.248 41.6119C57.1928 41.2896 57.2996 40.9609 57.5336 40.7326L69.4577 29.1097ZM53.3323 42.2838L56.1471 58.696C56.2413 59.2452 55.9022 59.5584 55.7521 59.6674C55.6017 59.7762 55.199 60.0023 54.7059 59.7428L39.9671 51.9942C39.2435 51.614 38.4498 51.4236 37.656 51.4236C36.8621 51.4236 36.0683 51.614 35.3449 51.994L20.6062 59.7425C20.1128 60.0019 19.7102 59.7761 19.56 59.6671C19.4099 59.5581 19.0707 59.2449 19.165 58.6957L21.9798 42.2838C22.2562 40.6724 21.7224 39.0291 20.5514 37.8878L8.62748 26.2648C8.22842 25.8756 8.31873 25.423 8.37624 25.2465C8.43346 25.0698 8.62659 24.6505 9.17804 24.5705L25.6563 22.176C27.2741 21.9409 28.6722 20.9254 29.3959 19.459L36.7653 4.52689C37.012 4.02722 37.4703 3.97324 37.6561 3.97324C37.8416 3.97324 38.2999 4.02707 38.5467 4.52682C38.5468 4.52686 38.5468 4.52691 38.5468 4.52696C38.5468 4.52701 38.5468 4.52706 38.5468 4.5271L45.9162 19.4592C46.6397 20.9255 48.0377 21.941 49.6556 22.1761L66.1341 24.5706C66.6855 24.6506 66.8785 25.07 66.9359 25.2466C66.9932 25.4233 67.0837 25.876 66.6845 26.2649L54.7605 37.888C53.5897 39.0291 53.0559 40.6724 53.3323 42.2838Z" fill="#486AAA"/>
<path d="M60.8639 2.7675C59.9761 2.12265 58.7339 2.31946 58.089 3.20701L55.9802 6.10942C55.3353 6.99697 55.532 8.23945 56.4197 8.8843C56.7726 9.14039 57.181 9.2638 57.5858 9.2638C58.2002 9.2638 58.806 8.97976 59.1946 8.44494L61.3034 5.54253C61.9483 4.65483 61.7516 3.41235 60.8639 2.7675Z" fill="#486AAA"/>
<path d="M19.3219 6.09767L17.2131 3.19526C16.5684 2.30801 15.326 2.1112 14.4382 2.75575C13.5506 3.4006 13.3538 4.64308 13.9987 5.53063L16.1075 8.43304C16.4963 8.96831 17.102 9.2522 17.7166 9.2522C18.1215 9.2522 18.5301 9.12879 18.8825 8.87255C19.7701 8.22785 19.9669 6.98537 19.3219 6.09767Z" fill="#486AAA"/>
<path d="M7.28865 44.5716C6.9496 43.5282 5.82891 42.9571 4.7853 43.2961L1.37322 44.4049C0.329602 44.7439 -0.24126 45.8649 0.0977861 46.9082C0.370494 47.748 1.14934 48.2816 1.98673 48.2816C2.19016 48.2816 2.39712 48.25 2.60114 48.1837L6.01322 47.0749C7.05668 46.7359 7.62769 45.6152 7.28865 44.5716Z" fill="#486AAA"/>
<path d="M37.6561 66.6289C36.559 66.6289 35.6695 67.5184 35.6695 68.6155V72.2034C35.6695 73.3005 36.559 74.19 37.6561 74.19C38.7533 74.19 39.6428 73.3005 39.6428 72.2034V68.6155C39.6428 67.5182 38.7534 66.6289 37.6561 66.6289Z" fill="#486AAA"/>
<path d="M73.9376 44.4076L70.5255 43.2988C69.4823 42.9601 68.3612 43.5308 68.0221 44.5744C67.6831 45.618 68.2539 46.7387 69.2976 47.0778L72.7096 48.1865C72.9137 48.2527 73.1205 48.2842 73.3239 48.2842C74.1614 48.2842 74.9403 47.7504 75.213 46.9108C75.552 45.8673 74.981 44.7467 73.9376 44.4076Z" fill="#486AAA"/>
</svg>
