<svg width="75" height="70" viewBox="0 0 75 70" fill="none" xmlns="http://www.w3.org/2000/svg">
<path d="M74.8502 29.3222C74.5901 28.7676 74.0348 28.4127 73.4205 28.4127C70.7145 28.4127 68.4412 26.4606 67.5966 23.8897C63.0445 10.0334 50.0054 0 34.6685 0C15.5534 0 0 15.5794 0 34.7263C0 53.8732 15.5518 69.451 34.6685 69.451C47.005 69.451 58.5101 62.8002 64.6935 52.0974C65.5648 50.587 65.0509 48.6577 63.5414 47.7834C62.035 46.9091 60.1074 47.4238 59.2378 48.9343C54.1761 57.695 44.7614 63.139 34.6685 63.139C19.0289 63.139 6.30308 50.3936 6.30308 34.7295C6.30308 19.0622 19.0289 6.31678 34.6685 6.31678C46.5175 6.31678 56.6764 13.6389 60.9079 23.9997C61.8053 26.1969 60.041 28.4143 57.6676 28.4143C57.0532 28.4143 56.4995 28.7692 56.2378 29.3238C55.9777 29.8784 56.0623 30.5322 56.4548 31.0037L64.3345 40.4741C64.6345 40.8337 65.0765 41.0415 65.5456 41.0415C66.0132 41.0415 66.4568 40.8321 66.7552 40.4741L74.6348 31.0037C75.0274 30.5306 75.1103 29.8768 74.8502 29.3222Z" fill="#486AAA"/>
<path d="M34.6685 7.89276C32.9276 7.89276 31.517 9.30572 31.517 11.0496V25.0072C31.517 28.2652 29.2176 31.3625 29.1548 34.6199C29.1541 34.6558 29.1537 34.6918 29.1537 34.7279C29.1537 37.7744 31.6287 40.2535 34.6701 40.2535C36.1774 40.2535 37.7752 40.1697 39.0801 40.9241L47.9592 46.0572C48.4571 46.3465 48.9964 46.4823 49.5326 46.4823C50.6209 46.4823 51.6804 45.9165 52.2645 44.9031C53.1341 43.3959 52.6187 41.4634 51.1092 40.5923L42.214 35.4474C40.911 34.6938 40.1652 33.2459 39.4117 31.9429C38.6578 30.6392 37.8232 29.3111 37.8232 27.8052V11.0496C37.8201 9.30732 36.4078 7.89276 34.6685 7.89276ZM34.6685 37.0935C33.3648 37.0935 32.3053 36.0306 32.3053 34.7279C32.3053 33.4236 33.3664 32.3607 34.6685 32.3607C35.9706 32.3607 37.0318 33.4236 37.0318 34.7279C37.0318 36.0306 35.9706 37.0935 34.6685 37.0935Z" fill="#486AAA"/>
</svg>
