<svg width="80" height="77" viewBox="0 0 80 77" fill="none" xmlns="http://www.w3.org/2000/svg">
<path d="M40 69.66C57.8952 69.6749 72.4039 55.7711 72.435 38.5853C72.466 21.3995 57.9573 7.46592 40.0777 7.43608C22.1981 7.40625 7.65827 21.3399 7.64274 38.5107C7.6272 46.7754 11.0447 54.697 17.134 60.5449C23.1923 66.3929 31.4253 69.66 40 69.66ZM40 10.6286C56.0932 10.6137 69.1573 23.145 69.1728 38.6002C69.1884 54.0555 56.1398 66.6017 40.0466 66.6167C23.9534 66.6167 10.8893 54.1003 10.8738 38.645C10.8738 31.2157 13.934 24.0848 19.4175 18.8187C24.8699 13.5675 32.2796 10.6137 40 10.6286Z" fill="white"/>
<path d="M25.1185 47.8345C27.9457 49.5799 31.2389 50.5048 34.5942 50.5048C37.1884 50.5197 39.767 49.9976 42.1282 48.9533C45.2505 47.551 47.8602 45.2536 49.6156 42.3893C51.2622 39.7339 52.1476 36.7055 52.1787 33.6025C52.1787 33.4384 52.1787 33.2743 52.1787 33.1102C53.2971 32.2897 54.2758 31.3051 55.068 30.1713C55.2389 29.9326 55.1612 29.6044 54.9126 29.4403C54.7573 29.3359 54.5554 29.321 54.3845 29.3955C53.9651 29.5746 53.5457 29.7237 53.1107 29.8431C53.6544 29.2314 54.0583 28.5154 54.3068 27.7545C54.4 27.486 54.2447 27.1876 53.9495 27.0981C53.7942 27.0534 53.6389 27.0683 53.4991 27.1429C52.4583 27.7396 51.3243 28.1573 50.1437 28.4109C47.5495 25.9942 43.4175 26.0688 40.901 28.5601C39.7204 29.7237 39.068 31.2902 39.068 32.9312C39.068 33.1848 39.0835 33.4235 39.1146 33.6771C34.7029 33.2892 30.6486 31.2156 27.8525 27.9037C27.666 27.6799 27.3243 27.6501 27.0913 27.8291C27.0447 27.8739 26.9981 27.9186 26.967 27.9783C25.6156 30.216 25.8175 33.0207 27.5107 35.0346C27.2777 34.9451 27.0602 34.8556 26.8427 34.7363C26.5787 34.602 26.2525 34.6915 26.0971 34.9451C26.0505 35.0197 26.035 35.0943 26.035 35.1838C26.035 35.2286 26.035 35.2435 26.035 35.2733C26.035 37.3917 27.1534 39.3758 29.0175 40.5395C28.9398 40.5245 28.8622 40.5096 28.7845 40.4947C28.4893 40.435 28.2097 40.629 28.1476 40.9124C28.1321 41.0019 28.1321 41.0914 28.1631 41.166C28.8466 43.2397 30.6175 44.821 32.8078 45.3431C30.602 46.6261 28.0233 47.1631 25.4758 46.8648C25.1806 46.8349 24.901 47.0289 24.8699 47.3272C24.8544 47.5212 24.9476 47.7151 25.1185 47.8345Z" fill="white"/>
</svg>
