<svg width="712" height="583" viewBox="0 0 712 583" fill="none" xmlns="http://www.w3.org/2000/svg">
<g clip-path="url(#clip0)">
<path d="M163.23 117.882L166.261 367.711L297.23 431.45L294.199 181.622L163.23 117.882Z" fill="#F2F2F2"/>
<path d="M123.432 97.9253L25.5684 298.651L158.355 363.275L155.324 113.446L123.432 97.9253Z" fill="#F2F2F2"/>
<path d="M712 379.91L447.686 251.275L450.717 501.103L614.137 580.636L712 379.91Z" fill="#F2F2F2"/>
<path d="M306.039 181.622L309.07 431.45L440.038 495.189L437.007 245.36L306.039 181.622Z" fill="#F2F2F2"/>
<path d="M601.65 192.263L585.203 192.9L586.023 214.027L602.47 213.389L601.65 192.263Z" fill="#9DDEED"/>
<path d="M527.46 266.253C527.46 266.253 504.684 255.381 505.049 264.77C505.413 274.16 528.007 280.337 528.007 280.337L527.46 266.253Z" fill="#FFB9B9"/>
<path d="M539.956 345.7C539.956 345.7 529.21 371.976 525.24 390.937C521.27 409.898 515.224 435.993 523.001 454.499C530.779 473.005 552.89 527.395 553.118 533.263C553.346 539.132 551.224 545.091 555.923 544.909C560.622 544.727 586.193 536.684 587.231 533.117C588.269 529.551 578.507 520.525 578.507 520.525L554.401 445.054L579.552 395.886L597.694 469.237L601.247 560.785C601.247 560.785 618.686 555.408 621.217 560.011C621.217 560.011 629.031 549.13 630.023 544.389C631.016 539.649 626.333 449.32 626.333 449.32C626.333 449.32 642.341 346.435 629.419 346.935C616.496 347.436 565.882 316.484 539.956 345.7Z" fill="#2F2E41"/>
<path d="M555.741 540.215C555.741 540.215 543.821 566.537 542.692 567.756C541.563 568.975 533.795 581.031 539.669 580.803C545.542 580.576 559.411 574.161 569.62 564.362C579.828 554.563 593.287 537.585 592.067 536.457C590.847 535.328 582.487 532.126 582.487 532.126L555.741 540.215Z" fill="#2F2E41"/>
<path d="M603.368 554.826C603.368 554.826 602.649 566.608 600.482 571.394C598.315 576.18 598.588 583.222 604.462 582.994C610.335 582.767 625.516 579.828 625.516 579.828C625.516 579.828 626.418 572.74 625.197 571.612C623.977 570.484 618.777 557.755 620.99 554.143C623.202 550.531 603.368 554.826 603.368 554.826Z" fill="#2F2E41"/>
<path d="M612.058 172.465C612.058 172.465 624.58 191.962 629.461 196.475C634.342 200.988 620.61 210.923 620.61 210.923L596.031 214.227C596.031 214.227 596.341 191.881 595.075 189.579C593.809 187.277 612.058 172.465 612.058 172.465Z" fill="#FFB9B9"/>
<path d="M590.695 197.977C590.695 197.977 595.758 207.184 600.457 207.002C605.156 206.82 629.461 196.475 630.499 192.908C631.537 189.342 638.55 218.457 638.55 218.457L579.077 323.026L564.57 313.009L571.599 251.612L577.372 218.476L590.695 197.977Z" fill="#9DDEED"/>
<path d="M632.693 291.562C630.321 296.521 628.839 301.691 629.044 306.985C629.054 307.219 629.063 307.454 629.084 307.688C629.646 318.551 633.652 331.115 635.089 340.251C636.131 346.805 635.835 351.589 631.996 352.713C622.689 355.425 633.353 357.362 597.346 369.337C561.339 381.311 555.055 370.975 554.964 368.628C554.873 366.28 560.063 348.447 558.843 347.319C557.622 346.191 541.768 362.086 536.978 359.921C532.188 357.756 536.431 345.837 536.431 345.837C536.431 345.837 547.222 320.734 546.995 314.865C546.767 308.997 563.34 281.319 563.34 281.319L574.613 208.004C574.613 208.004 578.947 198.432 584.775 197.031C590.604 195.63 595.439 198.969 595.439 198.969L585.686 220.505L575.397 258.518L577.118 272.557C577.118 272.557 589.084 247.409 596.943 237.701C604.801 227.993 621.557 205.01 621.557 205.01C621.557 205.01 625.469 191.822 622.516 187.881C619.562 183.929 634.834 183.337 641.345 199.541C644.797 208.129 650.4 220.936 653.91 232.861C657.037 243.424 658.515 253.3 655.416 258.944C650.68 267.568 638.767 278.902 632.693 291.562Z" fill="#575A89"/>
<path opacity="0.1" d="M655.416 258.944C650.68 267.568 638.767 278.902 632.693 291.562C631.107 285.852 629.171 279.944 629.171 279.944C629.171 279.944 621.749 240.266 643.705 230.012C647.342 229.66 650.981 230.676 653.91 232.86C657.037 243.424 658.515 253.3 655.416 258.944Z" fill="black"/>
<path d="M568.257 256.444L549.643 261.867L523.799 262.868L521.14 285.305L563.613 288.361C563.613 288.361 574.222 258.564 568.257 256.444Z" fill="#575A89"/>
<path d="M598.609 331.883C598.609 331.883 573.708 336.011 579.391 343.498C585.075 350.985 607.135 343.114 607.135 343.114L598.609 331.883Z" fill="#FFB9B9"/>
<path opacity="0.1" d="M629.083 307.688C629.646 318.551 633.652 331.115 635.089 340.251C627.156 347.752 619.612 354.368 616.77 354.478C610.896 354.706 601.452 353.896 597.974 355.207C594.495 356.517 592.455 334.262 592.455 334.262C592.455 334.262 594.531 327.129 603.792 323.244C610.043 320.615 622.026 313.486 629.083 307.688Z" fill="black"/>
<path d="M643.431 222.97C643.431 222.97 663.311 219.848 662.237 252.803C661.163 285.757 664.332 306.793 656.337 312.98C648.341 319.167 622.37 347.209 616.496 347.436C610.623 347.664 601.179 346.854 597.7 348.165C594.222 349.475 592.181 327.22 592.181 327.22C592.181 327.22 594.258 320.087 603.519 316.202C612.78 312.317 634.599 298.541 634.417 293.846C634.235 289.152 628.898 272.902 628.898 272.902C628.898 272.902 621.475 233.224 643.431 222.97Z" fill="#575A89"/>
<path d="M594.528 201.335C608.812 201.335 620.392 189.766 620.392 175.495C620.392 161.223 608.812 149.654 594.528 149.654C580.244 149.654 568.664 161.223 568.664 175.495C568.664 189.766 580.244 201.335 594.528 201.335Z" fill="#FFB9B9"/>
<path d="M577.113 138.458C576.489 138.995 575.742 139.369 574.939 139.548C574.535 139.62 574.12 139.529 573.783 139.296C573.446 139.063 573.215 138.706 573.14 138.303C572.549 139.529 571.881 140.836 570.673 141.465C569.465 142.094 567.596 141.567 567.422 140.217C567.246 141.242 566.792 142.199 566.11 142.985C565.36 143.699 564.001 143.879 563.346 143.077C563.876 145.966 563.549 148.937 563.715 151.869C563.881 154.801 564.664 157.909 566.881 159.837C570.115 162.649 574.977 161.955 579.231 161.423C579.874 161.288 580.541 161.324 581.166 161.528C582.759 162.206 582.687 164.421 582.708 166.151C582.838 169.185 584.04 172.076 586.101 174.309C588.162 176.542 590.948 177.973 593.965 178.348C595.653 178.608 597.376 178.188 598.754 177.18C599.962 176.157 600.579 174.49 601.963 173.722C604.214 172.472 606.944 174.295 608.59 176.274C610.235 178.253 611.857 180.687 614.407 181.049C617.779 181.528 620.347 178.095 621.607 174.933C623.346 170.502 624.179 165.769 624.057 161.011C623.935 156.253 622.861 151.568 620.898 147.232C613.857 131.897 589.806 129.472 577.113 138.458Z" fill="#2F2E41"/>
<path d="M440.245 159.743C469.67 159.743 493.523 135.911 493.523 106.512C493.523 77.1139 469.67 53.2817 440.245 53.2817C410.82 53.2817 386.967 77.1139 386.967 106.512C386.967 135.911 410.82 159.743 440.245 159.743Z" fill="#9DDEED"/>
<path d="M382.282 50.3514C394.558 62.9316 413.415 64.4553 413.415 64.4553C413.415 64.4553 412.369 45.5825 400.094 33.0023C387.818 20.4221 368.961 18.8984 368.961 18.8984C368.961 18.8984 370.007 37.7712 382.282 50.3514Z" fill="#3F3D56"/>
<path d="M386.4 43.8857C403.378 48.461 413.903 64.1678 413.903 64.1678C413.903 64.1678 396.9 72.4566 379.922 67.8813C362.944 63.306 352.419 47.5992 352.419 47.5992C352.419 47.5992 369.422 39.3104 386.4 43.8857Z" fill="#9DDEED"/>
<path d="M403.066 31.8909C403.179 49.4598 415.707 63.6226 415.707 63.6226C415.707 63.6226 428.053 49.3007 427.941 31.7318C427.828 14.1629 415.3 0 415.3 0C415.3 0 402.953 14.322 403.066 31.8909Z" fill="#3F3D56"/>
<path d="M410.521 30.0853C419.578 45.1451 416.259 63.7536 416.259 63.7536C416.259 63.7536 398.255 57.9454 389.198 42.8856C380.142 27.8258 383.461 9.21729 383.461 9.21729C383.461 9.21729 401.464 15.0255 410.521 30.0853Z" fill="#9DDEED"/>
<path d="M435.424 129.781C450.545 129.781 462.803 117.534 462.803 102.426C462.803 87.3184 450.545 75.0713 435.424 75.0713C420.303 75.0713 408.045 87.3184 408.045 102.426C408.045 117.534 420.303 129.781 435.424 129.781Z" fill="#F2F2F2"/>
<path d="M422.611 119.762C427.515 119.762 431.491 115.79 431.491 110.89C431.491 105.99 427.515 102.018 422.611 102.018C417.707 102.018 413.731 105.99 413.731 110.89C413.731 115.79 417.707 119.762 422.611 119.762Z" fill="#3F3D56"/>
<path d="M153.915 578.819C183.34 578.819 207.193 554.987 207.193 525.588C207.193 496.19 183.34 472.357 153.915 472.357C124.49 472.357 100.637 496.19 100.637 525.588C100.637 554.987 124.49 578.819 153.915 578.819Z" fill="#9DDEED"/>
<path d="M130.653 448.337C135.245 465.297 150.974 475.801 150.974 475.801C150.974 475.801 159.257 458.807 154.665 441.847C150.073 424.888 134.344 414.384 134.344 414.384C134.344 414.384 126.061 431.378 130.653 448.337Z" fill="#3F3D56"/>
<path d="M137.401 444.693C150.001 456.948 151.54 475.787 151.54 475.787C151.54 475.787 132.65 474.757 120.049 462.501C107.449 450.246 105.91 431.407 105.91 431.407C105.91 431.407 124.8 432.438 137.401 444.693Z" fill="#9DDEED"/>
<path d="M157.803 442.323C149.34 457.723 153.382 476.189 153.382 476.189C153.382 476.189 171.145 469.684 179.608 454.284C188.071 438.883 184.029 420.417 184.029 420.417C184.029 420.417 166.266 426.922 157.803 442.323Z" fill="#3F3D56"/>
<path d="M165.195 444.372C165.767 461.932 153.8 476.571 153.8 476.571C153.8 476.571 140.905 462.741 140.332 445.181C139.76 427.621 151.727 412.981 151.727 412.981C151.727 412.981 164.622 426.812 165.195 444.372Z" fill="#9DDEED"/>
<path d="M151.695 547.028C166.816 547.028 179.074 534.781 179.074 519.674C179.074 504.566 166.816 492.319 151.695 492.319C136.574 492.319 124.316 504.566 124.316 519.674C124.316 534.781 136.574 547.028 151.695 547.028Z" fill="#F2F2F2"/>
<path d="M160.575 515.238C165.479 515.238 169.455 511.266 169.455 506.366C169.455 501.466 165.479 497.494 160.575 497.494C155.671 497.494 151.695 501.466 151.695 506.366C151.695 511.266 155.671 515.238 160.575 515.238Z" fill="#3F3D56"/>
<path d="M284.891 578.079H7.39978V579.558H284.891V578.079Z" fill="#2F2E41"/>
<path d="M694.098 581.037H416.607V582.515H694.098V581.037Z" fill="#2F2E41"/>
<path d="M70.9553 579.158L69.6401 578.48C86.7203 545.488 77.5869 502.644 66.918 472.512C59.6734 452.259 50.4332 432.775 39.3333 414.346L40.5841 413.557C51.7417 432.078 61.0301 451.662 68.3126 472.018C79.0799 502.426 88.2776 545.698 70.9553 579.158Z" fill="#2F2E41"/>
<path d="M83.6194 413.82L74.0187 466.314L75.474 466.58L85.0748 414.085L83.6194 413.82Z" fill="#2F2E41"/>
<path d="M19.7814 458.546L18.6976 459.553L68.2758 512.784L69.3596 511.776L19.7814 458.546Z" fill="#2F2E41"/>
<path d="M108.911 517.018L83.7634 551.774L84.9629 552.641L110.11 517.885L108.911 517.018Z" fill="#2F2E41"/>
<path d="M88.0572 399.904C92.1439 399.904 95.4569 396.594 95.4569 392.511C95.4569 388.428 92.1439 385.118 88.0572 385.118C83.9704 385.118 80.6574 388.428 80.6574 392.511C80.6574 396.594 83.9704 399.904 88.0572 399.904Z" fill="#9DDEED"/>
<path d="M7.39976 456.832C11.4865 456.832 14.7995 453.522 14.7995 449.439C14.7995 445.355 11.4865 442.045 7.39976 442.045C3.31299 442.045 0 445.355 0 449.439C0 453.522 3.31299 456.832 7.39976 456.832Z" fill="#3F3D56"/>
<path d="M39.9587 464.225C44.0455 464.225 47.3585 460.915 47.3585 456.832C47.3585 452.748 44.0455 449.438 39.9587 449.438C35.8719 449.438 32.559 452.748 32.559 456.832C32.559 460.915 35.8719 464.225 39.9587 464.225Z" fill="#3F3D56"/>
<path d="M25.1592 493.058C29.2459 493.058 32.5589 489.748 32.5589 485.665C32.5589 481.582 29.2459 478.272 25.1592 478.272C21.0724 478.272 17.7594 481.582 17.7594 485.665C17.7594 489.748 21.0724 493.058 25.1592 493.058Z" fill="#9DDEED"/>
<path d="M117.656 511.541C121.743 511.541 125.056 508.231 125.056 504.148C125.056 500.065 121.743 496.755 117.656 496.755C113.569 496.755 110.256 500.065 110.256 504.148C110.256 508.231 113.569 511.541 117.656 511.541Z" fill="#3F3D56"/>
<path d="M93.237 519.673C97.3238 519.673 100.637 516.363 100.637 512.28C100.637 508.197 97.3238 504.887 93.237 504.887C89.1503 504.887 85.8373 508.197 85.8373 512.28C85.8373 516.363 89.1503 519.673 93.237 519.673Z" fill="#3F3D56"/>
<path d="M110.256 543.331C114.343 543.331 117.656 540.021 117.656 535.938C117.656 531.855 114.343 528.545 110.256 528.545C106.17 528.545 102.857 531.855 102.857 535.938C102.857 540.021 106.17 543.331 110.256 543.331Z" fill="#3F3D56"/>
<path d="M32.5589 408.776C36.6457 408.776 39.9587 405.466 39.9587 401.383C39.9587 397.3 36.6457 393.99 32.5589 393.99C28.4722 393.99 25.1592 397.3 25.1592 401.383C25.1592 405.466 28.4722 408.776 32.5589 408.776Z" fill="#3F3D56"/>
<path d="M508.065 132.515H151.397V346.177H508.065V132.515Z" fill="#3F3D56"/>
<path d="M165.456 144.344C167.499 144.344 169.156 142.689 169.156 140.647C169.156 138.605 167.499 136.95 165.456 136.95C163.413 136.95 161.756 138.605 161.756 140.647C161.756 142.689 163.413 144.344 165.456 144.344Z" fill="#9DDEED"/>
<path d="M178.776 144.344C180.819 144.344 182.476 142.689 182.476 140.647C182.476 138.605 180.819 136.95 178.776 136.95C176.732 136.95 175.076 138.605 175.076 140.647C175.076 142.689 176.732 144.344 178.776 144.344Z" fill="#9DDEED"/>
<path d="M192.095 144.344C194.139 144.344 195.795 142.689 195.795 140.647C195.795 138.605 194.139 136.95 192.095 136.95C190.052 136.95 188.395 138.605 188.395 140.647C188.395 142.689 190.052 144.344 192.095 144.344Z" fill="#9DDEED"/>
<path d="M508.065 148.914H151.695V150.393H508.065V148.914Z" fill="#2F2E41"/>
<path d="M359.33 192.399V258.938H262.519L244.634 280.378L246.676 258.938H237.974V192.399H359.33Z" fill="#9DDEED"/>
<path opacity="0.1" d="M359.33 215.318H315.671V258.937H359.33V215.318Z" fill="black"/>
<path d="M325.291 224.929H446.647V291.468H437.944L439.988 312.908L422.105 291.468H325.291V224.929Z" fill="#9DDEED"/>
<path opacity="0.1" d="M245.374 291.107C260.086 291.107 272.013 289.944 272.013 288.51C272.013 287.076 260.086 285.914 245.374 285.914C230.661 285.914 218.734 287.076 218.734 288.51C218.734 289.944 230.661 291.107 245.374 291.107Z" fill="black"/>
<path opacity="0.1" d="M439.987 326.215C456.743 326.215 470.326 324.891 470.326 323.258C470.326 321.625 456.743 320.301 439.987 320.301C423.232 320.301 409.648 321.625 409.648 323.258C409.648 324.891 423.232 326.215 439.987 326.215Z" fill="black"/>
</g>
<defs>
<clipPath id="clip0">
<rect width="712" height="583" fill="white"/>
</clipPath>
</defs>
</svg>
